<?xml version="1.0" encoding="UTF-8"?><!DOCTYPE svg PUBLIC "-//W3C//DTD SVG 1.0//EN" "http://www.w3.org/TR/2001/REC-SVG-20010904/DTD/svg10.dtd" []><svg xmlns="http://www.w3.org/2000/svg" xmlns:xlink="http://www.w3.org/1999/xlink" data-name="Calque 1" height="479" preserveAspectRatio="xMidYMid meet" version="1.0" viewBox="92.4 10.2 315.1 479.3" width="315" zoomAndPan="magnify"><g id="change1_1"><path d="M265.019,406.885c-7.201-27.87-14.43-55.729-19.771-84.039-3.068-16.263-5.923-32.557-8.251-48.942-1.626-11.446-3.118-22.909-4.577-34.377-1.424-11.188-2.663-22.397-3.923-33.604-1.019-9.067-1.986-18.139-3.615-27.124-.093-.515-.486-1.175.262-1.487.713-.297,1.492-.667,2.227.011.167.154.324.317.494.468,1.545,1.371,2.386,1.444,4.021.137.772-.618,1.569-.849,2.511-.783.452.032.907.059,1.359.046,1.43-.042,2.504-.638,3.056-2.019.188-.469.281-1.004.739-1.31.718-.48.632-1.139.431-1.82-.321-1.087-.582-2.176-.701-3.316-.336-3.212-.74-6.418-1.154-9.622-.952-7.369-1.552-14.766-1.873-22.19-.331-7.647-.177-15.307-.617-22.952-.098-1.695-.001-3.4.001-5.101.005-3.425.848-6.627,2.656-9.538,1.629-2.622,2.277-5.414,1.674-8.456-.255-1.286.05-2.334,1.044-3.21,1.129-.995,1.64-2.297,1.654-3.781.015-1.539.242-3.053.531-4.554.28-1.454.137-2.859-.537-4.138-.856-1.623-.977-3.279-.917-5.085.103-3.125-.481-6.083-3.018-8.334-1.749-1.552-2.743-3.747-4.369-5.42-.19-.195-.341-.475-.4-.741-.313-1.417-1.346-2.114-2.612-2.379-2.098-.439-4.22-.913-6.388-.464-1.021.211-2.022.248-3.011-.134-1.421-.548-2.935-.641-4.36-.312-2.341.54-4.582.394-6.856-.256-.808-.231-1.822-.486-2.483.044-1.126.902-1.911.398-2.841-.218-.753-.499-1.579-.891-2.387-1.302-4.034-2.055-7.587-4.736-10.647-8.078-1.724-1.883-3.427-3.779-4.967-5.82-1.094-1.449-2.263-2.843-3.582-4.092-1.892-1.791-4.065-3.076-6.695-3.438-1.702-.234-1.656-.223-1.813-1.905-.097-1.034.287-1.722,1.089-2.308,1.203-.88,2.215-1.949,2.886-3.298.667-1.339.603-2.623-.364-3.815-1.699-2.095-5.177-2.643-7.419-1.148-.595.397-1.158.847-1.174,1.77.544-.139.743-.517,1.053-.738,1.747-1.243,4.439-1.067,5.987.391,1.003.944,1.167,1.828.524,3.053-.508.966-1.197,1.811-2.064,2.459-1.569,1.174-2.31,2.603-1.707,4.571.224.73.015,1.152-.83,1.289-1.903.308-3.457,1.328-4.944,2.51-2.15,1.709-3.996,3.685-5.563,5.934-3.218,4.617-7.451,8.04-12.452,10.559-2.581,1.3-5.156,2.615-7.727,3.937-.458.236-1.143.338-1.402.836-.013.025-.029.062-.045.102-.481.232-.947.485-1.527.41-2.836-.37-5.355.468-7.751,1.941-1.834,1.128-3.739,2.162-5.883,2.604-4.363.899-7.403,3.483-9.457,7.346-.559,1.051-1.052,2.146-1.711,3.131-1.423,2.129-1.517,4.337-.589,6.643.402.998.869,1.97,1.318,2.948.918,2.002,1.149,4.056.229,6.094-1.41,3.125-1.148,6.167.221,9.209.325.723.607,1.467.876,2.213.503,1.395.813,2.828.842,4.32.054,2.775-.548,5.524-.312,8.305.019.221-.037.452-.078.675-.766,4.242-1.227,8.525-1.768,12.799-1.85,14.62-3.744,29.234-5.59,43.855-.125.993-.269,1.984-.29,2.986-.019.912-.412,1.808-.407,2.715-.006-.005-.013-.009-.02-.013.004.054.016.101.023.152.002.034,0,.067.002.101.003.036.016.064.027.093.193.887.86,1.387,1.659,1.652,1.294.429,2.324,1.128,3.094,2.247.856,1.245,2.031,1.687,3.539,1.476.941-.132,1.939-.259,2.83.266,1.209.713,2.233.381,3.293-.389.877-.637,1.368-1.469,1.756-2.435,2.328-5.802,3.559-11.941,5.507-17.86.07-.214.086-.445.132-.667,1.683-8.227,2.853-16.533,3.675-24.884.983-9.984,2.001-19.964,3.196-29.925.148-1.234.165-2.531.97-3.643.26,1.45.429,2.893.508,4.342.336,6.122.312,12.236-.267,18.35-.401,4.233-.869,8.454-1.376,12.675-.507,4.224-1.953,8.268-2.217,12.525-.01.161-.104.323-.179.474-1.287,2.598-2.406,5.25-2.683,8.18-.016.167-.084.329-.13.493-3.658,12.95-6.195,26.13-8.14,39.434-1.37,9.365-2.755,18.728-4.157,28.088-1.922,12.835-4.158,25.622-5.792,38.501-1.47,11.59-2.415,23.228-3.26,34.874-.545,7.52-1.016,15.045-1.504,22.569-.631,9.731-1.146,19.469-1.606,29.21-.329,6.965-.721,13.928-1.138,20.889-.498,8.319-1.052,16.634-1.58,24.951-.345,5.432-.798,10.854-1.455,16.258-1.213,9.972-3.13,19.811-5.514,29.565-1.883,7.704-4.156,15.317-5.471,23.156-.234,1.396-.62,2.774-.474,4.209.044.432.185.806.291,1.22.098.383.291.607.556.906.182.205.326.434.495.647.048.061.136.164.238.26.141.184.346.314.565.43,1.098.586,2.236.731,3.452.4,1.365-.372,2.742-.7,4.119-1.028,1.565-.374,2.883-.05,3.945,1.267,1.011,1.255,2.345,2.121,3.817,2.772,2.94,1.3,6.007,1.56,9.153,1.092,2.668-.397,5.093-1.508,7.501-2.653,2.612-1.242,5.252-2.395,8.086-3.064,4.388-1.036,8.335-.487,11.508,3.039.076.084.169.151.248.233,2.416,2.506,5.378,3.928,8.81,4.363,3.403.432,6.666,1.266,9.659,3.011.582.339,1.23.589,1.876.793,3.33,1.056,6.317,2.748,9.165,4.746,2.042,1.432,4.214,2.661,6.552,3.571,2.334.909,4.618.986,6.885-.244,1.471-.799,3.077-1.099,4.749-1.124,1.529-.023,3.057-.152,4.586-.169,2.895-.031,5.412-1.026,7.672-2.802,1.559-1.224,3.135-2.435,4.774-3.547,2.732-1.852,5.302-3.882,7.555-6.3,2.832-3.039,6.347-4.838,10.336-5.889,3.901-1.028,7.853-.996,11.819-.844,4.545.175,9.071-.004,13.549-.783,6.843-1.19,13.086-3.588,17.612-9.225.256-.239.473-.5.613-.832.159-.378.215-.79.283-1.192.54-3.171.366-6.35-.112-9.485-2.007-13.171-4.54-26.243-7.874-39.146ZM141.711,53.504c.305-.207.644-.328.971-.494,3.336-1.689,6.746-3.228,10.043-5.001,4.388-2.359,7.92-5.651,10.782-9.686,1.619-2.283,3.518-4.276,5.661-6.077,2.426-2.038,5.238-2.685,8.262-2.355,2.334.255,4.199,1.633,5.872,3.205,1.241,1.166,2.322,2.488,3.336,3.854,1.591,2.144,3.364,4.129,5.166,6.094,3.14,3.423,6.793,6.157,10.923,8.271,1.21.619,2.372,1.332,3.582,1.952.508.26.631.597.489,1.097-.062.218-.134.433-.2.65-.626,2.086-.647,2.051-2.55.984-7.073-3.964-13.85-8.424-20.902-12.422-2.17-1.23-4.356-2.426-6.606-3.507-.838-.402-1.588-.417-2.41.065-1.514.889-3.108,1.647-4.599,2.57-7.523,4.66-15.225,8.989-23.19,12.852-.958.465-1.604.512-2.333-.337-.644-.749-1.717-.929-2.459-1.58.053-.05.105-.1.162-.138ZM151.863,67.516c-1.217-.502-1.881-1.294-2.028-2.648-.145-1.344-1.153-2.246-2.21-2.879-1.623-.973-2.026-2.467-2.272-4.138-.107-.728.083-1.183.766-1.489,1.034-.463,2.034-1.004,3.065-1.474,6.256-2.85,12.185-6.294,18.029-9.894,2.221-1.368,4.463-2.695,6.726-3.992,1.097-.629,1.927-.591,2.96.02,1.951,1.154,3.991,2.157,5.94,3.315,5.02,2.983,10.001,6.032,15.017,9.023,2.142,1.277,4.323,2.49,6.503,3.702.671.373,1.073.82.859,1.551-.049,1.273-.474,2.285-1.455,3.019-.661.495-1.089,1.126-1.283,1.94-.491,2.065-1.824,3.499-3.614,4.5-.937.523-1.661,1.083-1.925,2.203-.213.905-.942,1.538-1.612,2.15-.711.649-1.463,1.255-2.213,1.86-.864.698-1.528,1.505-1.69,2.653-.183,1.299-.963,2.172-2.131,2.661-1.367.573-2.365,1.518-3.145,2.75-.9,1.42-1.979,2.618-3.733,3.008-.638.142-1.063.626-1.345,1.216-.495,1.036-1.311,1.695-2.407,1.998-.846.233-1.577.643-2.133,1.321-.362.442-.651.418-1.135.109-1.373-.877-2.892-1.532-3.569-3.218-.334-.83-1.229-1.005-2.022-1.026-1.452-.039-2.308-.817-2.832-2.056-.59-1.395-1.495-2.227-3.126-2.057-.701.073-1.159-.373-1.431-.998-.136-.312-.303-.617-.386-.943-.372-1.459-1.219-2.367-2.759-2.624-.905-.151-1.562-.651-1.651-1.67-.12-1.378-.921-2.288-2.087-2.906-1.257-.666-2.255-1.422-2.175-3.088.045-.925-.677-1.562-1.496-1.9ZM137.668,138.591c.123-.784.279-1.562.41-2.344,1.859-11.037,3.193-22.11,2.227-33.335-.058-.676-.058-1.378-.249-2.018-.54-1.809-.752-3.65-.775-5.526-.004-.31.066-.717-.567-.774-.391.509-.49,1.169-.603,1.831-1.341,7.884-2.153,15.835-2.971,23.782-.9,8.741-1.859,17.474-3.18,26.16-.715,4.699-1.377,9.417-2.729,14.006-1.313,4.456-2.391,8.983-4.078,13.324-.205.528-.369,1.076-.62,1.582-.844,1.706-2.257,2.239-4.012,1.496-.76-.321-1.553-.457-2.329-.316-1.679.306-2.829-.329-3.702-1.729-.387-.621-.885-1.223-1.609-1.471-1.043-.358-2.064-.748-3.019-1.331-.048-.136-.05-.269-.035-.443.09-1.006.222-1.998.453-2.982.18-.768.299-1.548.415-2.328,1.276-8.578,2.481-17.165,3.53-25.774.967-7.933,1.91-15.87,2.968-23.791.539-4.034.79-8.122,2.013-12.048.339-1.087.373-2.23.422-3.366.121-2.809-.729-5.372-1.95-7.837-1.381-2.787-1.726-5.548-.355-8.495,1.1-2.365.769-4.753-.544-7.009-.57-.979-1.156-1.959-1.604-2.995-.677-1.567-.868-3.217.051-4.75.993-1.656,1.785-3.421,2.794-5.059,1.687-2.74,3.984-4.861,7.171-5.63,2.584-.623,4.944-1.676,7.144-3.079,2.292-1.462,4.705-2.053,7.42-1.963,1.286.042,2.326.376,3.282,1.097.224.169.552.287.73.508.081.101.123.239.192.354.084.14.177.275.238.427.086.216.172.435.242.657.05.157.101.318.164.47.109.265.062.562.112.854.284,1.648,1.014,2.939,2.438,3.906.879.596,1.742,1.394,1.819,2.559.097,1.471.773,2.436,2.092,3.024.912.406,1.405,1.087,1.368,2.135-.033.952.521,1.581,1.289,2.054.531.327,1.055.666,1.593.981.781.458,1.31,1.097,1.397,2.014.139,1.451.968,2.269,2.34,2.535,1.149.222,1.755.911,2.061,1.988.122.431.356.833.563,1.235.42.816,1.092,1.404,2.007,1.35,1.304-.076,1.956.548,2.434,1.653.655,1.515,1.759,2.5,3.515,2.498.843-.001,1.369.403,1.725,1.137.538,1.111,1.336,1.944,2.536,2.379.414.15.786.452,1.133.739.648.538,1.187.575,1.69-.189.524-.796,1.305-1.238,2.214-1.473,1.222-.316,2.129-1.039,2.72-2.147.276-.517.584-.971,1.208-1.098,1.748-.354,2.879-1.525,3.785-2.945.784-1.228,1.751-2.19,3.119-2.774,1.256-.536,2.215-1.449,2.426-2.859.184-1.23.856-2.054,1.799-2.756.91-.677,1.807-1.373,2.573-2.219.497-.549,1.056-1.102,1.176-1.841.157-.967.729-1.429,1.543-1.843,2.017-1.027,3.396-2.634,3.927-4.864.184-.774.573-1.325,1.194-1.78.971-.711,1.482-1.698,1.59-2.888.057-.627.129-1.26.446-1.803.638-1.092,1.088-2.242,1.259-3.495.126-.919.733-1.218,1.557-1.214.337.002.679.059,1.008.134,2.333.536,4.64.812,7.045.235,1.42-.341,2.941-.179,4.354.373.871.34,1.798.458,2.677.251,1.766-.416,3.496-.088,5.236.071,1.699.155,3.287.53,3.772,2.529.038.157.148.314.263.433,1.743,1.798,2.799,4.148,4.647,5.851,2.275,2.096,2.617,4.897,2.508,7.657-.073,1.833.057,3.47.886,5.078.707,1.37.771,2.815.464,4.307-.274,1.332-.537,2.667-.546,4.038-.008,1.247-.417,2.347-1.358,3.191-1.248,1.12-1.678,2.461-1.417,4.128.402,2.562-.145,4.941-1.549,7.148-.975,1.532-1.776,3.167-2.343,4.9-.462,1.413-.777,2.836-.273,4.331.138.408.06.896.049,1.346-.032,1.36-.152,2.722-.11,4.079.214,6.916.188,13.834.291,20.751.051,3.456.294,6.91.486,10.363.335,6.004.978,11.981,1.88,17.922.557,3.673.48,7.442,1.632,11.025.082.253-.041.403-.146.602-.237.448-.438.916-.637,1.383-.452,1.056-1.253,1.573-2.394,1.569-.454-.001-.909.004-1.361-.027-1.064-.074-1.977.211-2.845.873-1.37,1.044-1.772,1.014-3.084-.18-.78-.71-1.576-.988-2.629-.785-1.229.237-1.273.183-1.528-1.073-1.083-5.332-2.131-10.677-3.729-15.883-.917-2.988-1.684-5.996-2.157-9.083-.309-2.017-.679-4.025-.958-6.045-.91-6.568-1.974-13.125-2.275-19.756-.306-6.738-.466-13.484-.579-20.229-.05-3,.179-6.005.263-9.008.015-.526.134-1.093-.135-1.521-.358-.027-.468.084-.526.255-.604,1.767-1.195,3.535-1.622,5.36-1.747,7.457-3.3,14.948-3.781,22.612-.28,4.455-1.033,8.928.22,13.36.215.761-.1,1.084-.817,1.367-1.442.569-3.006.545-4.448,1.038-1.239.424-2.505.716-3.787.955-8.045,1.504-16.171,2.131-24.343,2.402-12.315.407-24.606.278-36.864-1.111-1.159-.131-1.214-.161-1.024-1.368ZM214.487,127.304c.56,7.567,1.686,15.087,3.156,22.543.054.273.079.551.147,1.038-.572-.516-.688-1.062-.908-1.531-.846-1.797-1.713-3.583-2.879-5.197-.413-.571-.751-1.284-1.599-1.359-.238-1.699-.819-3.311-1.665-4.764-1.341-2.303-1.59-4.811-1.72-7.353-.144-2.839.28-5.658.492-8.481.551-7.365,1.973-14.589,3.708-21.756.077-.316.194-.623.338-1.077.36.631.182,1.128.191,1.601.177,8.782.092,17.58.74,26.338ZM136.274,144.159c.111-.895.363-1.773.537-2.661.167-.852.69-1.088,1.493-.936,2.787.53,5.606.822,8.429,1.072,1.806.16,3.611.391,5.421.442,8.107.231,16.215.272,24.32-.105,2.831-.132,5.663-.193,8.492-.418,5.372-.427,10.721-1.042,15.988-2.176,2.483-.535,4.916-1.34,7.329-2.149.894-.3,1.392-.192,1.752.646.492,1.144.96,2.3,1.494,3.424.368.774.114,1.099-.65,1.33-2.768.836-5.554,1.596-8.39,2.165-5.065,1.016-10.208,1.44-15.331,2.005-4.562.504-9.125.985-13.712,1.238-2.78.153-5.555.059-7.156.09-10.476-.322-19.72-1.247-28.924-2.591-1.185-.173-1.235-.217-1.091-1.377ZM272.601,454.582c-.021.527-.062,1.053-.128,1.576-.061.48-.268.838-.565,1.213-.058.073-.2.185-.319.304-.837.313-1.495.928-2.191,1.475-3.977,3.125-8.358,5.431-13.351,6.421-3.283.65-6.608,1.049-9.958,1.078-3.854.033-7.716-.17-11.562.006-6.447.294-12.207,2.338-16.673,7.277-1.217,1.346-2.515,2.62-3.977,3.705-2.914,2.16-5.843,4.3-8.768,6.444-1.743,1.278-3.704,1.928-5.858,2.014-1.813.073-3.624.17-5.438.215-1.676.042-3.269.424-4.735,1.209-2.003,1.072-4.007,1.027-6.07.242-1.115-.424-2.21-.896-3.23-1.51-1.651-.992-3.31-1.978-4.899-3.065-2.026-1.386-4.15-2.534-6.491-3.297-1.617-.527-3.191-1.185-4.687-1.998-2.075-1.128-4.296-1.773-6.625-2.013-4.218-.433-7.854-1.983-10.781-5.154-2.59-2.806-5.888-3.614-9.611-3.149-3.023.378-5.823,1.418-8.576,2.636-1.761.78-3.501,1.61-5.273,2.363-2.773,1.179-5.683,1.545-8.662,1.214-2.774-.308-5.271-1.2-7.142-3.471-1.229-1.491-2.812-2.183-4.836-1.703-1.155.274-2.33.486-3.466.835-1.298.398-2.555.43-3.815-.121-.092-.04-.189-.071-.287-.099-.151-.185-.401-.358-.476-.44-.232-.253-.608-.498-.766-.803-.152-.293-.225-.709-.283-1.033-.141-.779-.085-1.579.08-2.35.687-3.213,1.319-6.438,2.037-9.644,1.535-6.855,3.537-13.592,5.141-20.434,2.554-10.894,4.309-21.898,5.281-33.032.439-5.023.724-10.061,1.047-15.094.645-10.067,1.327-20.132,1.885-30.204.599-10.808,1.048-21.624,1.686-32.431.858-14.54,1.867-29.067,3.082-43.582,1.044-12.487,2.597-24.91,4.606-37.272,2.862-17.616,5.292-35.297,8.054-52.928,1.315-8.396,2.72-16.778,4.797-25.029.857-3.406,1.903-6.775,2.555-10.219.492-2.596,1.366-5.007,2.369-7.414.383-.917.957-1.149,1.859-1.01,1.791.277,3.586.533,5.383.766,6.406.831,12.816,1.609,19.275,1.93,5.5.273,10.99.283,16.471-.305,4.281-.46,8.56-.93,12.841-1.386,7.11-.757,14.162-1.783,20.851-4.49,1.904,2.409,3.257,5.127,4.433,7.943,2.037,4.877,3.493,9.934,4.699,15.072,3.023,12.882,4.665,25.977,6.052,39.11,1.452,13.749,2.989,27.488,4.753,41.201,1.785,13.881,3.658,27.748,5.781,41.582,2.656,17.31,6.012,34.489,9.49,51.646,3.299,16.275,7.55,32.326,11.505,48.446,3.522,14.357,7.665,28.564,10.229,43.15,1.197,6.806,2.737,13.555,3.195,20.474.069,1.042.105,2.087.063,3.131Z"/></g><g id="change1_2"><path d="M407.493,210.111c-.015-.686-.095-1.369-.23-2.041-.357-1.777-.705-3.557-1.048-5.337-.183-.949-.22-1.81.321-2.76.51-.896.965-2.179.215-3.053-.623-.726-.463-1.234-.308-1.941.176-.805.522-1.714-.593-2.188-.414-.176-.211-.437-.115-.69.162-.423.35-.838.475-1.271.17-.588.501-1.305-.131-1.722-.698-.461-1.109.208-1.508.684-.109.13-.251.205-.489.046-1.166-7.334-2.105-14.752-2.741-22.206-.154-1.803-.537-3.608-.25-5.423.569-3.594.65-7.225.811-10.846.151-3.394.511-6.783.313-10.193-.237-4.074-.327-8.157-.595-12.229-.279-4.24-.562-8.484-1.165-12.696-.955-6.674-1.881-13.352-2.906-20.016-.801-5.204-1.465-10.44-3.097-15.481-1.03-3.182-1.877-6.416-2.663-9.667-.48-1.982-1.046-3.944-1.505-5.931-.609-2.635-2.032-4.447-4.7-5.294-1.83-.581-3.625-1.301-5.317-2.247-4.206-2.351-8.43-4.67-12.632-7.027-1.66-.931-3.506-1.623-4.584-3.359-.085-.137-.248-.232-.388-.327-3.189-2.175-6.152-4.646-9.191-7.018-.626-.489-1.29-1.155-2.04-1.166-1.614-.024-2.202-1.134-2.88-2.236-.505-.821-1.06-1.615-1.514-2.463-1.959-3.659-5.061-5.7-9.062-6.522-.866-.178-1.993.065-2.518-.714-.494-.732-.087-1.775-.202-2.665-.199-1.543.355-2.527,1.751-3.299,1.79-.989,3.013-2.554,3.555-4.579.348-1.299.086-2.483-.738-3.522-1.816-2.289-6.059-2.511-8.095-.423-.546.56-1.075,1.17-.826,2.066.313,0,.447-.162.577-.359,1.458-2.191,3.814-2.868,6.196-1.787,1.73.785,2.427,2.221,1.88,4.035-.177.586-.49,1.146-.82,1.669-.646,1.023-1.53,1.818-2.574,2.43-1.169.685-1.817,1.626-1.749,3.054.04.841-.193,1.693-.178,2.538.017.905-.379,1.159-1.218,1.169-1.801.021-3.409.685-4.978,1.542-2.257,1.232-3.943,2.969-5.294,5.147-1.14,1.837-2.186,3.862-4.726,4.237-.508.075-.961.572-1.422.9-3.696,2.625-7.25,5.459-11.262,7.617-.454.244-.963.527-1.088,1.028-.274,1.092-1.168,1.471-1.998,1.936-6.134,3.443-12.817,5.762-18.94,9.235-.94.533-1.912.948-2.589,1.855-1.642,2.199-2.91,4.602-3.881,7.153-1.539,4.042-2.422,8.236-2.971,12.529-.293,2.291-.35,4.629-1.017,6.87-.582,1.955-1.104,3.929-1.727,5.87-1.111,3.461-1.923,6.993-2.529,10.57-.615,3.632-1.228,7.265-2.041,10.857-1.834,8.105-2.914,16.274-2.558,24.612.256,6.002.022,12.022.454,18.018.289,4.015.156,8.045.568,12.056.278,2.706.4,5.429-.297,8.115-.27,1.041-.519,2.094-.675,3.157-.948,6.487-.987,12.986-.22,19.495.325,2.756.653,5.513.886,8.277.073.863.328,1.438,1.175,1.607,2.514.499,5.038.758,7.586.209.419-.09.843-.375,1.273-.103.186.3.063.573.019.844-.43,2.628-.862,5.256-1.29,7.884-.273,1.675-.036,2.064,1.671,2.115,3.86.115,7.68.597,11.504,1.073,4.664.58,9.36.897,13.963,1.956,2.653.61,5.365.899,8.106.731,4.51-.277,8.451-1.829,11.236-5.494,4.275-5.625,7.838-11.663,9.953-18.469.158-.508.168-1.106.726-1.64.177.731.329,1.315.46,1.903,1.117,5.015,2.902,9.774,5.495,14.215,2.506,4.291,5.665,7.918,10.282,10.079.868.406,1.666.942,2.634,1.125,2.702.51,5.426.532,8.133.204,4.724-.572,9.435-1.252,14.15-1.903,6.868-.947,13.533-2.782,20.2-4.611.893-.245,1.165-.722,1.142-1.579-.034-1.245.055-2.492-.188-3.73-.087-.442-.09-.902-.103-1.355-.012-.422.221-.624.639-.564.336.048.665.137.999.198,3.206.584,6.411.864,9.594-.118.469-.145.943-.281,1.428-.362.43-.071.869-.05,1.256-.283.137-.082.246-.211.35-.329.147-.168.276-.313.334-.514.013-.044.022-.092.027-.142.034-.335.034-.677.027-1.013ZM362.709,47.769c.732.598.664,1.46.726,2.269.481,6.335-.21,12.556-1.818,18.687-1.095,4.174-2.719,8.122-4.518,12.057-2.283,4.992-4.593,9.98-6.774,15.021-2.883,6.662-6.256,13.08-9.843,19.387-2.156,3.792-4.334,7.571-6.49,11.364-.864,1.52-1.564,3.122-2.327,4.712-.085-1.91.322-3.737.62-5.576.043-.267.185-.531.329-.767,1.363-2.22,2.684-4.469,4.116-6.644,5.249-7.977,9.42-16.532,13.475-25.144,1.352-2.871,2.834-5.673,4.24-8.515,4.648-9.395,7.635-19.246,8.309-29.744.131-2.042-.262-4.067-.287-6.106-.004-.307-.245-.661.242-1ZM351.488,95.495c-.06-.575.132-.951.732-1.065.389-.074.781-.154,1.175-.171,4.973-.223,9.946-.441,14.92-.645.659-.027,1.328.005,1.994.394-.487.168-17.417,1.489-18.82,1.487ZM370.893,96.498c-.136.723-.259,1.448-.393,2.171-.234,1.261-.36,1.392-1.644,1.479-1.922.129-3.844.244-5.768.34-4.642.231-9.261.696-13.859,1.375-.156.023-.325-.037-.766-.094.794-1.764,1.518-3.351,2.222-4.946.244-.553.701-.684,1.231-.736,1.521-.148,3.038-.362,4.562-.445,4.412-.241,8.825-.448,13.24-.631,1.331-.055,1.43.127,1.174,1.488ZM354.031,41.181c2.116,1.71,4.153,3.525,6.45,4.995.91.583,1.211,1.338,1.332,2.38.651,5.595-.121,11.057-1.186,16.539-1.42,7.311-4.132,14.162-7.54,20.688-3.856,7.384-7.128,15.059-11.25,22.302-2.719,4.777-5.528,9.502-8.3,14.249-.111.19-.26.358-.547.479.199-.799.382-1.602.598-2.397,2.625-9.681,4.762-19.477,6.986-29.254,2.551-11.214,5.506-22.328,8.462-33.442,1.192-4.483,1.978-9.074,2.965-13.612.315-1.448.38-2.881-.355-4.555,1.123.517,1.737,1.104,2.386,1.629ZM340.668,41.101c.662-.115,1.192-.039,1.76.321,2.394,1.518,4.789,3.034,7.14,4.619.878.592.93,1.17.755,2.125-1.724,9.381-4.599,18.472-6.902,27.706-2.578,10.339-4.888,20.738-7.188,31.14-.794,3.594-1.83,7.135-2.758,10.699-.069.265-.08.572-.484.71-.895-4.728-1.88-9.427-2.657-14.161-1.13-6.882-2.505-13.714-3.974-20.527-2.211-10.251-4.101-20.561-5.891-30.891-.329-1.897-.518-3.819-.814-5.723-.132-.846.136-1.363.9-1.78,2.289-1.248,4.547-2.556,6.809-3.853.461-.264.908-.357,1.453-.288,3.953.502,7.91.581,11.851-.101ZM328.926,40.578c2.072-1.269,3.792-2.32,5.51-3.375.372-.228.748-.255,1.123-.029,1.59.959,3.177,1.923,4.765,2.886-.034.148-.068.296-.101.444-3.61.541-7.229.48-11.296.074ZM318.949,40.173c.07-.775.513-1.36,1.046-1.893,1.567-1.568,2.88-3.326,4.16-5.141,3.113-4.417,7.475-6.003,12.774-5.203,4.176.63,7.431,2.547,9.463,6.388,1.142,2.157,2.578,4.143,4.305,5.883.582.586.805,1.248.737,1.989-.108,1.177-.204,2.369-.722,3.564-.906-.221-1.441-.752-2.042-1.159-3.946-2.668-7.986-5.181-12.115-7.559-1.243-.716-2.233-.672-3.431.052-3.975,2.405-7.998,4.731-12.007,7.081-.48.281-.906.68-1.647.78-.458-1.561-.67-3.149-.522-4.783ZM308.539,45.573c2.988-1.747,5.675-3.938,8.446-6.002.447-.333.898-.659,1.347-.989-.535,1.816-.22,3.494.012,5.173,2.292,16.56,5.766,32.898,9.154,49.255,1.343,6.485,2.407,13.028,3.611,19.541.318,1.72.687,3.431,1.096,5.461-.93-.653-1.221-1.408-1.551-2.117-2.271-4.877-4.535-9.758-6.796-14.64-2.261-4.882-4.544-9.754-6.77-14.652-4.068-8.952-7.408-18.145-8.81-27.933-.489-3.415-.781-6.858-1.149-10.29-.131-1.225.243-2.125,1.41-2.808ZM306.246,47.155c.453.329.262.823.294,1.248.598,8.153,1.551,16.254,4.154,24.048,1.975,5.913,4.386,11.662,7.003,17.325,3.947,8.538,7.863,17.089,12.075,25.502.658,1.314,1.151,2.71,2.147,3.826.813.911.952,1.878.255,3.077-.641-.46-.735-1.106-.967-1.66-2.366-5.65-4.984-11.174-8.003-16.51-3.829-6.767-6.987-13.856-10.072-20.985-2.163-4.998-4.279-9.995-5.561-15.312-1.384-5.736-2.548-11.504-2.905-17.408-.021-.339-.035-.68-.037-1.02q-.006-1.481,1.616-2.13ZM264.297,194.59c-.012-.458.218-.734.711-.715.68.027,1.394.744,1.417,1.418-.009.465-.248.743-.709.747-.588.005-1.403-.832-1.419-1.45ZM266.94,199.059c-.059.307-.08.654-.198.964-.144.38-.434.701-.858.725-.497.028-.626-.391-.726-.783-.069-.273-.156-.549-.175-.827-.055-.828.541-1.686,1.158-1.593.868.131.634.924.799,1.514ZM273.228,209.205c-2.365.469-4.729.189-7.075-.229-.148-.026-.273-.18-.588-.399,1.406-.786,2.787-.856,4.099-.953,2.681-.199,5.235-.88,7.753-1.729,3.191-1.076,6.489-1.494,9.821-1.729.837-.059,1.702-.175,2.512.177.538.233.647.609.224,1.055-.483.51-1.124.751-1.773.952-1.839.571-3.72.954-5.63,1.201-3.14.406-6.24,1.039-9.344,1.654ZM329.261,200.147c-2.165,6.527-5.369,12.485-9.44,17.991-2.275,3.077-5.414,4.71-9.18,5.276-3.307.497-6.574.219-9.803-.45-3.449-.715-6.927-1.18-10.425-1.512-4.062-.386-8.082-1.157-12.168-1.31-.963-.036-1.926-.083-2.887-.15-1.248-.087-1.243-.097-1.067-1.292.397-2.69,1.05-5.342,1.213-8.066.053-.876.475-1.3,1.361-1.41,2.473-.308,4.943-.651,7.408-1.02,1.684-.251,3.346-.634,4.908-1.33.929-.413,1.947-.85,1.9-2.117-.006-.169-.048-.326-.122-.47-.028-.087-.055-.166-.07-.223-.089-.337-.208-.657-.238-1.006-.028-.328.007-.662-.021-.993-.052-.615-.203-1.216-.253-1.831-.404-4.97-.9-9.933-1.261-14.906-.323-4.465-.526-8.939-.751-13.411-.069-1.372-.009-1.41,1.236-1.383,3.685.08,7.37.162,11.053.279,1.415.045,2.819.3,4.242.235,3.055-.139,4.07-1.235,3.912-4.239-.009-.17-.049-.342-.03-.509.222-1.93-.498-3.922.395-5.813.174-.368-.053-.669-.419-.793-.319-.109-.656-.182-.991-.226-6.131-.81-12.278-1.385-18.474-1.264-1.505.029-1.554.017-1.574-1.46-.067-4.99-.335-9.969-.739-14.941-.478-5.883.506-11.635,1.508-17.391,1.603-9.208,3.426-18.383,4.119-27.727.128-1.727.223-3.447-.022-5.186-.728,3.364-.832,6.792-1.203,10.185-.383,3.496-.938,6.962-1.476,10.432-.529,3.415-1.135,6.817-1.693,10.228-.565,3.456-1.111,6.915-1.707,10.627-.406-1.053-.473-1.889-.616-2.711-.156-.893-.349-1.779-.5-2.673-.142-.838-.234-1.684-.379-2.521-.14-.811.035-1.716-.57-2.575-.258.533-.146.868-.123,1.202.24,3.456,1.001,6.836,1.482,10.257.617,4.387.474,8.821.721,13.231.294,5.261.269,10.539.51,15.804.399,8.718.652,17.445,1.528,26.136.415,4.115.702,8.243,1.337,12.334.071.457.102.933.222,1.379.045.168.069.336.091.509.014.111.045.217.08.321-.437-.222-1.039-.349-1.776-.357-3.486-.037-6.875.576-10.211,1.566-2.495.74-4.923,1.734-7.537,2.041-1.52.179-3.041.349-4.555.571-.611.09-1.005.027-1.031-.695-.066-1.804-.479-3.59-.325-5.55,1.038.213,1.956.015,2.443-.946.523-1.033.434-2.103-.216-3.063-.262-.387-.419-.631-.266-1.18.41-1.474-.072-2.2-1.521-2.695-.316-.108-.628-.232-.937-.358-.032-.013-.038-.092-.059-.147.011-.329.29-.312.491-.316.853-.016,1.243-.53,1.296-1.286.054-.765-.108-1.612-.929-1.819-.998-.251-1.035-.855-.994-1.641.153-2.944.316-5.884.984-8.772.681-2.948.938-5.946.649-8.953-.435-4.522-.286-9.064-.601-13.588-.453-6.509-.247-13.033-.439-19.549-.187-6.312.461-12.561,1.841-18.733,1.174-5.255,2.02-10.573,2.941-15.876.553-3.181,1.29-6.323,2.235-9.42.975-3.195,1.952-6.404,2.423-9.719.286-2.017.534-4.04.828-6.057.677-4.654,2.191-9.008,4.441-13.13,1.22-2.235,2.576-4.285,5.233-4.996,5.93-3.59,12.563-5.781,18.529-9.301.14-.083.317-.102.546-.172.344.443.354.847.363,1.239.146,6.687,1.661,13.133,3.433,19.535,1.821,6.582,4.722,12.746,7.375,19.003,2.237,5.276,4.859,10.367,7.687,15.349,2.718,4.788,5.081,9.748,7.319,14.773.161.362.267.763.49,1.083,1.467,2.103,1.353,4.333.989,6.777-1.043,7.004-2.377,13.961-3.218,20.998-.911,7.626-1.086,15.254-.664,22.913.221,4.018.389,8.038.825,12.042.306,2.818.572,5.645,1.273,8.396.736,2.89.565,5.664-.379,8.511ZM289.45,160.194c1.359-.017,2.718-.004,4.534-.004,3.857-.138,8.124.543,12.418.756,1.512.075,1.565.237,1.532,1.761-.034,1.582-.099,3.157.17,4.74.267,1.571-.445,2.524-2.021,2.748-.944.134-1.927.138-2.878.046-4.351-.425-8.71-.294-13.068-.252-1.794.017-1.799.034-1.886-1.668-.113-2.204-.239-4.408-.317-6.614-.052-1.473-.011-1.494,1.515-1.513ZM288.487,158.795c.278-.04.562-.063.843-.066,4.015-.042,8.02.154,12.013.571,1.628.17,3.254.373,4.878.578.66.084,1.315.214,1.972.323-3.4-.027-6.713-.309-10.035-.501-2.657-.153-5.307-.181-7.961.006-.562.04-1.128.036-1.692.03-.235-.003-.44-.112-.48-.379-.053-.35.149-.518.462-.563ZM397.438,212.467c-3.755-.536-7.46-1.332-11.059-2.556-.56-.191-1.513-.261-1.388-.962.128-.714,1.057-.402,1.637-.412,2.047-.033,4.062.315,6.058.702,2.885.56,5.751,1.217,8.62,1.858.765.171,1.508.437,2.261.66-1.988,1.015-4.066,1.005-6.128.71ZM407.03,211.383c-.173.248-.75.17-1.006.139-.474-.057-.928-.218-1.38-.362-3.686-1.167-7.505-1.726-11.27-2.524-2.165-.459-4.378-.596-6.581-.769-.679-.053-1.368-.033-2.021.191-.897.307-1.052.99-.394,1.684.403.425.937.638,1.477.807,1.568.489,3.139.968,4.716,1.426,1.386.402,1.371.39,1.541,1.77.174,1.408.288,2.816.342,4.234.032.826-.247,1.195-1.066,1.412-5.314,1.409-10.644,2.743-16.067,3.67-6.09,1.04-12.235,1.684-18.35,2.55-2.426.343-4.873.256-7.274-.283-3.705-.831-6.555-3.064-8.952-5.851-4.574-5.319-7.165-11.618-8.842-18.363-.592-2.383-.475-4.842-1.024-7.211-1.927-8.329-2.296-16.826-2.763-25.313-.115-2.093-.188-4.19-.245-6.285-.133-4.948.616-9.833,1.144-14.729.34-3.152.673-6.312,1.342-9.419.768-3.564,1.961-6.984,3.712-10.183,1.741-3.181,3.552-6.325,5.387-9.454,2.783-4.745,5.418-9.569,7.812-14.52.508-1.051,1.186-1.504,2.317-1.626,6.089-.658,12.194-1.074,18.309-1.366.283-.013.567-.019.85-.04,1.966-.141,2.191-.344,2.533-2.259.159-.892.316-1.785.488-2.674.365-1.895-.481-3.028-2.446-3.029-4.706,0-9.411.121-14.096.619-.954.101-1.903.202-2.843.131-.243-.701.172-1.171.393-1.658,1.965-4.334,3.999-8.638,5.936-12.985,3.305-7.419,5.367-15.157,5.694-23.304.079-1.976.012-3.958.012-6.022.606-.16,1.075.331,1.568.626,4.135,2.476,8.364,4.785,12.579,7.12,1.888,1.046,3.803,2.014,5.842,2.736.746.264,1.475.59,2.184.944,1.436.718,2.447,1.793,2.812,3.416.472,2.1,1.009,4.186,1.475,6.287.799,3.598,1.757,7.153,2.872,10.664,1.706,5.369,2.584,10.906,3.359,16.46,1.026,7.35,2.122,14.694,2.938,22.069.885,8,1.369,16.044,1.37,24.096,0,4.244-.373,8.488-.591,12.999-.345-1.892.193-3.651-.942-5.176,0,1.851-.039,3.702.006,5.552.297,12.039,1.853,23.935,3.956,35.78.99,5.577,1.872,11.171,3.13,16.696.082.362.293.989.057,1.327Z"/></g><g id="change1_3"><path d="M219.457,327.802c-.973-8.217-1.964-16.431-2.897-24.653-.875-7.715-1.698-15.436-2.521-23.157-.876-8.228-1.751-16.457-2.578-24.691-.77-7.67-1.47-15.347-2.21-23.019-.789-8.183-1.429-16.378-1.864-24.586-.444-8.378-.688-16.767-1.107-25.146-.258-5.152-.732-10.291-1.694-15.369-.537-2.835-1.184-5.643-2.673-8.142.31,1.081.647,2.156.926,3.246,1.743,6.794,2.229,13.752,2.626,20.714.491,8.603.545,17.225,1.052,25.83.497,8.433,1.135,16.854,1.929,25.263.597,6.32,1.201,12.639,1.836,18.956.725,7.218,1.468,14.435,2.238,21.649.824,7.721,1.667,15.44,2.543,23.155.825,7.264,1.68,14.525,2.564,21.782.932,7.651,1.906,15.296,2.88,22.942.665,5.214,1.266,10.438,2.344,15.597-.094-2.027-.269-4.047-.506-6.06-.952-8.105-1.928-16.206-2.887-24.31Z"/></g><g id="change1_4"><path d="M192.095,329.739c-.917-11.353-1.867-22.704-2.716-34.062-.892-11.925-1.668-23.858-2.52-35.786-1.041-14.587-1.971-29.179-2.429-43.799-.412-13.15-.334-26.301-.1-39.45.1-5.612.169-11.222.123-16.834-.011-1.401-.109-2.793-.367-4.25-.39.349-.28.7-.278,1.007.066,12.077-.464,24.143-.619,36.216-.168,13.041.177,26.072.835,39.097.521,10.303,1.246,20.592,2.016,30.878.483,6.443.945,12.887,1.436,19.329.483,6.329.966,12.658,1.494,18.983.613,7.341,1.26,14.679,1.919,22.016.551,6.142,1.096,12.285,2.046,18.334,0-.676.047-1.357-.008-2.029-.264-3.218-.573-6.432-.833-9.65Z"/></g><g id="change1_5"><path d="M180.197,399.981c-2.129-16.073-4.83-32.055-7.419-48.056-1.132-6.993-2.246-13.991-2.938-21.046-.287-2.921-.547-5.845-.839-8.987-.332.719-.211,1.275-.205,1.806.046,4.656.53,9.281,1.103,13.893,1.495,12.039,3.552,23.994,5.465,35.97,2.19,13.713,4.124,27.463,6.02,41.219.431,3.127.855,6.259,1.614,9.334-.031-1.418-.114-2.829-.269-4.231-.735-6.648-1.652-13.273-2.53-19.903Z"/></g><g id="change1_6"><path d="M142.364,163.833c-.595,4.581-1.166,8.731-1.665,12.889-.872,7.259-1.752,14.518-2.532,21.788-.846,7.892-1.478,15.804-1.882,23.732-.295,5.776-.563,11.554-.489,17.341.011.888-.01,1.789.397,2.634.117-.061.19-.08.19-.102.653-25.584,3.283-51.007,6.214-76.406.045-.393.031-.793.025-1.19-.001-.103-.073-.205-.259-.686Z"/></g><g id="change1_7"><path d="M152.864,231.256c-.427,8.036-.714,16.08-1.018,24.123-.473,12.518-1.013,25.034-1.177,37.562-.013.963-.041,1.927-.079,2.89-.223,5.666-.299,11.334-.195,17.003.008.424-.19.931.293,1.343.024-.446.053-.839.064-1.232.279-10.369.55-20.739.837-31.108.108-3.91.228-7.819.383-11.727.399-10.081.844-20.16,1.222-30.242.231-6.174.417-12.35.537-18.526.082-4.243.016-8.489.016-12.733-.751,7.574-.483,15.12-.883,22.649Z"/></g><g id="change1_8"><path d="M177.73,231.306c-.152-4.245-.328-8.489-.474-12.735-.289-8.436-.564-16.873-.398-25.315.154-7.872.15-15.748.487-23.616.021-.49.196-1.043-.234-1.565-1.476,5.355-1.191,54.236.623,65.577,0-.782.024-1.565-.004-2.346Z"/></g><g id="change1_9"><path d="M240.605,446.209c-2.887-21.497-7.436-42.695-11.604-63.964.221,3.344,10.97,62.393,11.604,63.964Z"/></g><g id="change1_10"><path d="M133.404,269.886c-.008,9.235-.377,18.458-1.056,27.667-.47,6.381-1.046,12.753-1.56,19.131-.387,4.797-.761,9.595-1.118,14.394-.057.763-.103,1.542.216,2.301,1.117-10.691,2.327-21.37,2.934-32.097,1.202-21.247,1.328-29.709.648-32.443-.031.497-.063.772-.064,1.047Z"/></g><g id="change1_11"><path d="M210.779,384.171c.122-.019.245-.038.367-.057-1.302-9.729-2.785-19.431-4.91-29.078,1.514,9.712,3.028,19.423,4.543,29.135Z"/></g><g id="change1_12"><path d="M154.949,181.533c.605-3.443.393-14.872-.298-16.626.332,5.538.053,11.087.298,16.626Z"/></g><g id="change1_13"><path d="M383.856,186.361c-.537-1.66-.569-3.361-.752-5.038-.52-4.788-1.281-9.546-1.604-14.359-.182-2.71-.322-5.433-.792-8.12-1.987-11.35-2.954-22.817-3.903-34.284-.351-4.236-.517-8.487-.811-12.728-.418-6.038-.791-12.076-.389-18.322-.689.981-.567,1.952-.601,2.869-.238,6.412.201,12.808.492,19.208.32,7.024.916,14.028,1.59,21.025.521,5.415,1.026,10.834,1.912,16.208.415,2.516.789,5.039,1.206,7.554.132.798-.106,1.129-.958,1.151-1.984.051-3.966.164-5.947.289-5.093.321-10.183.688-15.218,1.567-.657.115-1.421.053-1.921.566-.473.485.201,1.066.034,1.621-.065.214-.083.447-.094.673-.075,1.539.055,3.065.443,4.552.45,1.729,1.342,2.46,3.107,2.652.45.049.906.049,1.36.043,6.349-.08,12.699-.141,19.047-.268,1.479-.03,1.358-.076,1.669,1.444.034.166.042.338.067.506.649,4.374,1.032,8.775,1.407,13.179.116,1.363.175,2.703-.005,4.056-.458,3.442-.402,6.901-.305,10.36.039,1.404.247,2.785.803,4.095-.021-.39-.052-.78-.061-1.17-.094-3.968-.193-7.935.222-11.895.639-6.088,1.272-12.177,1.88-18.268.626-6.26,1.236-12.522,2.235-18.737.919-5.716,1.446-11.469,1.693-17.25.035-.815.005-1.634.005-2.451-1.364,16.506-4.613,32.768-5.81,49.271ZM379.33,162.196c.304-.014.688-.133.844.306-.061.089-.117.244-.176.245-7.629.181-15.239.592-22.796,1.729-.054.008-.132-.138-.363-.396,7.567-.938,15.016-1.552,22.491-1.884ZM380.228,172.574c-3.399.011-6.799.005-10.198.005-3.23-.013-6.456.412-9.69.19-2.215-.152-2.877-.7-3.265-2.889-.208-1.174-.292-2.358-.359-3.548-.054-.951.373-1.346,1.251-1.44,1.464-.156,2.923-.381,4.39-.491,5.595-.417,11.187-.907,16.805-.925,1.254-.004,1.294.003,1.449,1.275.273,2.249.472,4.507.742,6.756.111.926-.446,1.063-1.124,1.066Z"/></g><g id="change1_14"><path d="M334.307,137.302c-.993-.03-2.541,1.362-2.848,2.56-.273,1.068.02,1.958.844,2.554.878.636,1.893.621,2.822-.06.604-.443,1.064-1.016,1.357-1.701.69-1.615-.412-3.3-2.174-3.353ZM333.624,142.078c-.841-.003-1.528-.652-1.559-1.473-.04-1.04,1.085-2.386,2.014-2.408.887-.022,1.743.694,1.781,1.488.05,1.032-1.224,2.396-2.236,2.393Z"/></g><g id="change1_15"><path d="M333.505,165.082c-1.417.054-2.763,1.631-2.695,3.159.058,1.315,1.147,2.28,2.484,2.202,1.314-.077,2.705-1.658,2.666-3.028-.034-1.192-1.281-2.377-2.455-2.333ZM332.992,169.628c-.84-.033-1.434-.678-1.432-1.554.003-1.136.817-2.114,1.744-2.095.871.018,1.704.762,1.722,1.539.023.974-1.107,2.147-2.034,2.111Z"/></g><g id="change1_16"><path d="M390.497,112.131c.73-8,.992-16.001-.04-23.974.618,8.008-.054,15.992.04,23.974Z"/></g><g id="change1_17"><path d="M383.044,66.075c-.106-.054-.213-.108-.319-.162-2.964,4.344-5.996,8.656-6.507,14.151.943-2.441,1.661-4.981,2.971-7.278,1.278-2.241,2.57-4.475,3.856-6.712Z"/></g><g id="change1_18"><path d="M396.754,124.123c-.307-6.954-.962-13.88-1.828-20.788.325,6.953.962,13.88,1.828,20.788Z"/></g><g id="change1_19"><path d="M288.877,69.2c.732,1.715,1.4,3.453,1.863,5.261.473,1.845.93,3.694,1.393,5.541-.427-5.812-2.349-11.093-5.665-15.861.735,1.712,1.675,3.338,2.409,5.058Z"/></g></svg>